<?xml version="1.0" standalone="no"?>
<!DOCTYPE svg PUBLIC "-//W3C//DTD SVG 20010904//EN"
 "http://www.w3.org/TR/2001/REC-SVG-20010904/DTD/svg10.dtd">
<svg version="1.0" xmlns="http://www.w3.org/2000/svg"
 width="960.000000pt" height="960.000000pt" viewBox="0 0 960.000000 960.000000"
 preserveAspectRatio="xMidYMid meet">
<metadata>
Created by potrace 1.14, written by Peter Selinger 2001-2017
</metadata>
<g transform="translate(0.000000,960.000000) scale(0.100000,-0.100000)"
fill="#000000" stroke="none">
<path d="M660 9512 l0 -90 58 -1 c110 -1 200 -12 302 -36 3 -1 20 -5 39 -9 41
-10 147 -63 181 -91 42 -35 100 -98 106 -117 3 -10 9 -18 13 -18 10 0 63 -122
85 -195 17 -57 38 -164 42 -215 1 -19 3 -35 4 -35 14 0 21 -7181 7 -7430 -8
-141 -19 -253 -32 -325 -1 -8 -6 -35 -10 -60 -11 -66 -12 -71 -25 -120 -7 -25
-14 -52 -15 -60 -2 -8 -15 -45 -28 -81 -114 -306 -311 -436 -687 -452 l-35 -2
-3 -88 -3 -87 1528 2 1527 3 1 78 c0 44 -2 83 -5 87 -5 8 -64 14 -85 10 -5 -1
-14 -1 -20 0 -5 1 -25 4 -44 6 -64 6 -96 13 -163 34 -145 45 -258 121 -333
225 -11 15 -25 32 -30 39 -16 17 -81 155 -95 201 -7 22 -17 49 -22 60 -8 19
-13 38 -23 100 -3 17 -8 38 -11 48 -3 11 -7 29 -9 40 -1 12 -5 45 -9 72 -14
111 -17 156 -20 282 -1 73 -5 136 -9 139 -3 4 -3 14 1 23 4 9 6 30 5 46 -2 17
-3 41 -2 55 1 25 1 59 0 95 -1 23 -2 152 -1 175 0 8 1 593 2 1300 l1 1285 431
-1 c237 -1 431 -3 431 -4 0 -1 27 -3 60 -5 73 -5 163 -14 192 -19 11 -3 43 -7
70 -11 85 -12 326 -74 408 -105 44 -17 85 -32 92 -34 7 -1 16 -5 19 -9 4 -4
16 -7 26 -7 10 0 18 -4 18 -10 0 -5 12 -13 26 -16 23 -6 59 -25 228 -122 16
-9 37 -24 47 -32 37 -32 48 -40 54 -40 10 0 68 -53 171 -155 94 -94 179 -200
234 -290 13 -22 26 -42 30 -45 11 -10 95 -184 92 -192 -1 -4 2 -8 8 -8 5 0 10
-7 10 -15 0 -8 4 -23 9 -33 14 -27 55 -132 56 -142 1 -3 11 -39 24 -80 13 -41
25 -83 27 -93 2 -9 6 -25 8 -35 2 -9 10 -37 17 -62 14 -51 15 -55 22 -90 3
-14 10 -37 16 -52 6 -16 8 -28 6 -28 -2 0 0 -12 6 -27 6 -16 13 -39 15 -53 2
-14 13 -59 24 -100 12 -41 23 -84 25 -95 3 -11 7 -29 9 -40 3 -11 9 -35 15
-53 5 -18 10 -35 10 -37 1 -3 1 -6 2 -7 0 -2 2 -10 4 -18 2 -8 7 -26 10 -40 3
-14 8 -36 11 -49 3 -14 7 -28 10 -33 3 -5 8 -21 10 -36 3 -15 14 -61 26 -102
11 -41 21 -83 24 -94 2 -10 10 -42 18 -70 8 -28 17 -62 20 -76 12 -55 27 -116
33 -130 3 -8 7 -22 8 -30 5 -22 11 -48 30 -115 9 -33 21 -78 26 -100 5 -22 14
-53 21 -68 6 -15 11 -36 12 -45 1 -9 7 -35 14 -57 7 -22 22 -71 34 -110 33
-108 85 -267 99 -300 7 -16 13 -33 13 -37 1 -3 4 -10 9 -14 4 -4 7 -13 7 -21
0 -26 110 -245 160 -317 107 -154 220 -243 392 -306 31 -11 67 -23 80 -26 137
-29 142 -29 238 -39 36 -4 81 -9 100 -12 19 -2 423 -7 898 -10 l862 -5 0 89 0
89 -97 12 c-124 15 -158 21 -208 34 -22 5 -49 12 -60 14 -54 10 -220 71 -305
112 -83 39 -195 105 -210 123 -3 3 -12 10 -22 15 -43 24 -163 138 -243 229
-51 59 -180 266 -190 305 -1 3 -11 27 -23 53 -12 27 -22 55 -22 63 0 8 -4 14
-8 14 -4 0 -13 21 -20 48 -7 26 -21 76 -32 112 -18 64 -46 171 -56 220 -6 30
-22 94 -34 135 -5 17 -13 48 -19 70 -46 174 -94 343 -102 357 -5 10 -9 23 -9
30 0 28 -175 546 -210 623 -5 11 -30 72 -55 135 -98 244 -331 693 -367 708 -4
2 -8 8 -8 13 0 15 -134 199 -200 274 -256 290 -519 458 -850 543 -109 28 -238
52 -306 56 -16 2 -34 5 -40 7 -5 3 -52 6 -104 8 -52 1 -99 7 -104 12 -6 5 1 9
20 10 16 1 40 2 54 4 14 2 57 6 97 10 39 3 80 7 90 9 10 2 46 7 78 11 33 4 69
9 80 12 11 2 34 6 50 9 17 3 66 12 110 21 112 22 110 21 110 23 0 1 11 3 25 6
42 7 273 75 305 89 17 7 44 17 60 21 17 4 56 19 88 35 31 15 57 26 57 24 0 -2
48 21 108 51 459 234 763 585 942 1089 16 44 31 91 34 105 3 14 15 59 26 100
12 41 23 91 26 110 2 19 9 52 15 72 5 20 9 40 8 45 -1 4 0 10 1 13 4 11 10 48
16 105 3 33 8 74 10 90 29 268 24 739 -12 975 -3 19 -7 50 -9 69 -2 19 -9 57
-14 85 -6 28 -13 62 -15 76 -14 71 -63 253 -84 310 -3 8 -6 20 -7 25 -5 18
-88 209 -105 240 -22 39 -87 154 -103 180 -7 11 -18 24 -24 28 -7 4 -13 13
-13 18 0 25 -209 257 -286 319 -11 8 -39 31 -64 51 -98 78 -400 261 -400 242
0 -4 -9 2 -20 12 -11 10 -20 15 -20 11 0 -4 -12 0 -27 8 -26 15 -81 37 -93 38
-3 0 -14 5 -25 11 -11 6 -24 12 -30 13 -5 1 -41 14 -80 27 -126 45 -279 89
-350 102 -11 2 -51 11 -90 20 -38 9 -79 19 -90 21 -153 27 -271 47 -295 49
-14 2 -27 4 -30 5 -3 1 -8 2 -11 2 -3 -1 -37 4 -75 9 -101 14 -152 20 -214 24
-30 2 -55 5 -55 6 0 0 -25 2 -55 4 -30 2 -80 6 -110 10 -54 6 -138 12 -292 19
-43 3 -82 7 -87 10 -5 4 -12 2 -16 -4 -4 -6 -11 -7 -17 -4 -22 14 -232 16
-1880 21 l-1698 5 0 -90z m3275 -96 c99 -4 200 -8 225 -10 25 -3 77 -7 115
-11 39 -3 77 -8 85 -10 8 -2 46 -7 85 -10 38 -4 79 -12 90 -18 11 -6 20 -9 20
-7 0 14 221 -40 350 -86 172 -61 372 -182 487 -295 27 -25 50 -43 53 -41 3 3
5 1 5 -5 0 -5 20 -32 45 -59 24 -27 45 -52 45 -55 0 -3 9 -17 21 -30 17 -20
72 -107 119 -189 28 -47 88 -186 115 -265 9 -27 20 -57 23 -65 3 -8 7 -26 9
-40 2 -13 9 -30 15 -37 6 -7 8 -13 4 -13 -3 0 -1 -12 5 -27 6 -16 14 -46 19
-68 4 -22 15 -74 23 -115 21 -99 31 -161 42 -245 2 -16 6 -54 10 -84 19 -150
29 -373 29 -636 0 -231 -9 -483 -18 -535 -3 -14 -8 -54 -11 -90 -7 -71 -9 -91
-20 -165 -13 -93 -21 -138 -36 -205 -6 -25 -13 -56 -15 -70 -3 -14 -7 -32 -10
-40 -3 -8 -8 -26 -10 -40 -13 -67 -91 -279 -145 -390 -55 -113 -135 -240 -192
-307 -63 -73 -236 -233 -253 -233 -3 0 -24 -13 -47 -29 -67 -46 -262 -141
-289 -141 -8 0 -18 -4 -24 -9 -17 -16 -278 -83 -374 -96 -25 -3 -52 -8 -60
-10 -8 -2 -40 -7 -70 -10 -30 -3 -71 -8 -90 -10 -19 -3 -71 -8 -115 -11 -44
-3 -107 -7 -140 -10 -33 -2 -319 -6 -636 -9 l-576 -4 -1 227 c-1 125 -1 241
-1 257 0 47 0 78 0 100 -1 22 -2 152 -1 173 0 6 0 49 0 95 0 45 0 96 1 112 0
17 0 125 0 240 -1 116 -1 224 0 240 0 45 0 78 0 100 -1 22 -2 152 -1 173 0 6
0 49 0 95 0 45 0 96 1 112 0 17 0 125 0 240 -1 116 -1 224 0 240 0 17 0 53 0
80 0 28 0 64 0 80 0 17 0 125 0 240 -1 116 -1 224 0 240 0 45 0 78 0 100 -1
22 -2 152 -1 173 0 6 0 49 0 95 0 45 0 96 1 112 0 17 0 125 0 240 -1 116 -1
224 0 240 0 45 0 78 0 100 -1 22 -2 152 -1 173 0 6 0 49 0 95 0 45 0 96 1 112
0 17 1 104 1 195 l0 165 457 -1 c251 -1 537 -5 636 -8z m1095 -4918 c0 -11
-12 -10 -30 2 -12 7 -10 9 8 7 12 0 22 -5 22 -9z"/>
</g>
</svg>
