<?xml version="1.0" standalone="no"?>
<!DOCTYPE svg PUBLIC "-//W3C//DTD SVG 20010904//EN"
 "http://www.w3.org/TR/2001/REC-SVG-20010904/DTD/svg10.dtd">
<svg version="1.0" xmlns="http://www.w3.org/2000/svg"
 width="260.000000pt" height="260.000000pt" viewBox="0 0 260.000000 260.000000"
 preserveAspectRatio="xMidYMid meet">
<metadata>
Created by potrace 1.14, written by Peter Selinger 2001-2017
</metadata>
<g transform="translate(0.000000,260.000000) scale(0.100000,-0.100000)"
fill="#000000" stroke="none">
<path d="M0 1300 l0 -1300 1300 0 1300 0 0 1300 0 1300 -1300 0 -1300 0 0
-1300z m1430 935 c161 -37 259 -103 309 -209 50 -107 65 -273 36 -408 -42
-201 -148 -294 -380 -331 -11 -2 5 -9 35 -16 103 -23 161 -71 228 -191 37 -67
91 -221 122 -350 27 -112 46 -154 92 -197 37 -36 83 -58 146 -68 27 -4 42 -12
42 -22 0 -13 -25 -14 -173 -11 -146 2 -177 6 -200 21 -58 38 -82 101 -152 399
-24 102 -53 204 -64 227 -68 133 -199 191 -433 191 l-99 0 3 -347 c3 -296 6
-353 20 -384 19 -44 51 -68 101 -76 22 -3 37 -11 37 -19 0 -12 -45 -14 -250
-14 -205 0 -250 2 -250 14 0 8 16 16 40 20 50 8 75 32 92 88 20 66 19 1569 -1
1617 -15 35 -59 61 -106 61 -16 0 -25 6 -25 16 0 14 36 16 378 11 307 -4 391
-8 452 -22z"/>
<path d="M940 1765 l0 -468 168 6 c129 4 182 10 232 26 158 50 220 172 220
436 0 147 -16 232 -57 308 -62 113 -147 146 -395 154 l-168 6 0 -468z"/>
</g>
</svg>
